<?xml version="1.0" encoding="utf-8"?>
<!-- Generator: Adobe Illustrator 16.0.0, SVG Export Plug-In . SVG Version: 6.00 Build 0)  -->
<!DOCTYPE svg PUBLIC "-//W3C//DTD SVG 1.1//EN" "http://www.w3.org/Graphics/SVG/1.1/DTD/svg11.dtd">
<svg version="1.1" id="Layer_1" xmlns="http://www.w3.org/2000/svg" xmlns:xlink="http://www.w3.org/1999/xlink" x="0px" y="0px"
	 width="405px" height="406.667px" viewBox="0 0 405 406.667" enable-background="new 0 0 405 406.667" xml:space="preserve">
<g id="Privacy_Icon">
	<circle fill="none" stroke="#D62816" stroke-width="5" stroke-miterlimit="10" cx="202.5" cy="203.333" r="194.15"/>
	<g>
		<path fill-rule="evenodd" clip-rule="evenodd" fill="#D72500" d="M191.162,86.088c-24.872,0-45.034,20.224-45.034,45.055v45.029
			h112.744c0,0,0-5.286,0-9.882v-35.178c0-24.861-20.164-45.024-45.036-45.024H191.162z"/>
		<path fill-rule="evenodd" clip-rule="evenodd" fill="#FFFFFF" d="M203.099,101.583c-36.06-0.312-34.418,21.925-34.418,40.681
			v33.758h67.65v-33.758C236.331,123.634,235.677,101.272,203.099,101.583z"/>
		<g>
			<path fill-rule="evenodd" clip-rule="evenodd" fill="#D72500" d="M124.626,173.724c-6.784,0-12.334,5.55-12.334,12.334v110.635
				c0,6.783,5.55,12.334,12.334,12.334h155.748c6.784,0,12.334-5.551,12.334-12.334V186.058c0-6.784-5.55-12.334-12.334-12.334
				H124.626z"/>
		</g>
		<path fill="#FFFFFF" d="M220.774,215.62c0,9.53-7.724,17.25-17.252,17.25c-9.523,0-17.249-7.72-17.249-17.25
			c0-9.523,7.726-17.25,17.249-17.25C213.051,198.37,220.774,206.096,220.774,215.62z"/>
		<path fill="#FFFFFF" d="M239.021,283.333c0-19.851-16.088-35.938-35.934-35.938c-19.847,0-35.934,16.087-35.934,35.938H239.021z"
			/>
	</g>
</g>
</svg>
