<?xml version="1.0" encoding="utf-8"?>
<!-- Generator: Adobe Illustrator 16.0.0, SVG Export Plug-In . SVG Version: 6.00 Build 0)  -->
<!DOCTYPE svg PUBLIC "-//W3C//DTD SVG 1.1//EN" "http://www.w3.org/Graphics/SVG/1.1/DTD/svg11.dtd">
<svg version="1.1" id="Lock_-_Icons" xmlns="http://www.w3.org/2000/svg" xmlns:xlink="http://www.w3.org/1999/xlink" x="0px"
	 y="0px" width="1023px" height="1023px" viewBox="0 0 1023 1023" enable-background="new 0 0 1023 1023" xml:space="preserve">
<symbol  id="App_Icon_2" viewBox="-511 -509.999 1023 1023">
	<path fill="#FFFFFF" d="M-192.052-192.052c3.091-3.091,6.247-6.094,9.458-9.017l-18.475,18.475
		C-198.146-185.805-195.143-188.961-192.052-192.052z"/>
	<g id="Isolation_Mode_2_">
		<linearGradient id="SVGID_1_" gradientUnits="userSpaceOnUse" x1="0.5" y1="513.001" x2="0.5" y2="-509.999">
			<stop  offset="0" style="stop-color:#D62716"/>
			<stop  offset="0.4874" style="stop-color:#D42616"/>
			<stop  offset="0.6938" style="stop-color:#CD2416"/>
			<stop  offset="0.8469" style="stop-color:#C02116"/>
			<stop  offset="0.9731" style="stop-color:#AF1B16"/>
			<stop  offset="1" style="stop-color:#AA1A16"/>
		</linearGradient>
		<polygon fill="url(#SVGID_1_)" points="512,-509.999 -511,-509.999 -511,513.001 512,513.001 		"/>
		<g id="Layer_1_2_">
			<g opacity="0.2">
				<path d="M-16.66-248.629c-36.933-21.201-49.71-68.344-28.486-105.318c21.204-36.941,68.342-49.711,105.315-28.498
					c36.953,21.19,49.716,68.345,28.498,105.309C67.466-240.186,20.312-227.405-16.66-248.629z"/>
				<path d="M55.909,87.809c-0.497-0.289-0.961-0.623-1.437-0.918l-8.132-4.652l-101.1-58.023l-0.049-0.146
					c-2.008-0.989-159.871-79.568-79.135-221.534l0.355-0.666l43.328-75.488c0,0-22.591,84.86,106.49,161.386l4.266,2.436
					l-0.065,0.077l111.01,63.681l-0.032,0.065c39.191,22.469,49.967,68.334,28.863,105.128
					C139.158,95.946,92.682,108.917,55.909,87.809z"/>
				<path d="M194.15,342.887c-21.125,36.805-67.887,49.611-104.686,28.503c-0.503-0.295-0.853-0.579-1.35-0.885l-122.451-70.267
					l-134.546-77.204c0,0-159.897-79.716-79.155-221.67l0.35-0.655l43.334-75.51c0,0-21.857,85.297,107.235,161.822l4.973,2.84
					l-0.038,0.072l257.891,148l-0.044,0.087C201.49,258.796,215.198,306.196,194.15,342.887z"/>
			</g>
			<g>
				<g>
					<g>
						<path fill="#FFFFFF" d="M-23.66-236.629c-36.933-21.201-49.71-68.344-28.486-105.318
							c21.204-36.941,68.342-49.711,105.315-28.498c36.953,21.19,49.716,68.345,28.498,105.309
							C60.466-228.186,13.312-215.405-23.66-236.629z"/>
						<path fill="#FFFFFF" d="M48.909,99.809c-0.497-0.289-0.961-0.623-1.437-0.918l-8.132-4.652l-101.1-58.023l-0.049-0.146
							c-2.008-0.989-159.871-79.568-79.135-221.534l0.355-0.666l43.328-75.488c0,0-22.591,84.86,106.49,161.386l4.266,2.436
							l-0.065,0.077l111.01,63.681l-0.032,0.065c39.191,22.469,49.967,68.334,28.863,105.128
							C132.158,107.946,85.682,120.917,48.909,99.809z"/>
						<path fill="#FFFFFF" d="M187.15,354.887c-21.125,36.805-67.887,49.611-104.686,28.503c-0.503-0.295-0.853-0.579-1.35-0.885
							l-122.451-70.267l-134.546-77.204c0,0-159.897-79.716-79.155-221.67l0.35-0.655l43.334-75.51
							c0,0-21.857,85.297,107.235,161.822l4.973,2.84l-0.038,0.072l257.891,148l-0.044,0.087
							C194.49,270.796,208.198,318.196,187.15,354.887z"/>
					</g>
				</g>
			</g>
		</g>
	</g>
</symbol>
<defs>
	<filter id="Adobe_OpacityMaskFilter" filterUnits="userSpaceOnUse" x="0" y="0" width="1023" height="1023">
		<feColorMatrix  type="matrix" values="1 0 0 0 0  0 1 0 0 0  0 0 1 0 0  0 0 0 1 0"/>
	</filter>
</defs>
<mask maskUnits="userSpaceOnUse" x="0" y="0" width="1023" height="1023" id="XMLID_3_">
	<g filter="url(#Adobe_OpacityMaskFilter)">
		<path fill="#FFFFFF" d="M356.015,1.001h309.972c102.811,0,154.199,0,209.533,17.471c60.425,22.002,108.006,69.582,129.993,130.008
			C1023,203.802,1023,255.21,1023,358v309.99c0,102.789,0,154.189-17.487,209.525c-21.987,60.426-69.568,108.006-129.993,129.992
			c-55.334,17.494-106.723,17.494-209.533,17.494H356.015c-102.807,0-154.199,0-209.535-17.494
			C86.062,985.521,38.482,937.94,16.486,877.515C-1,822.179-1,770.778-1,667.989V358c0-102.789,0-154.197,17.486-209.52
			C38.482,88.054,86.062,40.474,146.479,18.472C201.815,1.001,253.208,1.001,356.015,1.001L356.015,1.001"/>
	</g>
</mask>
<g mask="url(#XMLID_3_)">
	
		<use xlink:href="#App_Icon_2"  width="1023" height="1023" id="XMLID_2_" x="-511" y="-509.999" transform="matrix(1 0 0 -1 511 513.001)" overflow="visible"/>
</g>
</svg>
