<?xml version="1.0" encoding="utf-8"?>
<!-- Generator: Adobe Illustrator 16.0.0, SVG Export Plug-In . SVG Version: 6.00 Build 0)  -->
<!DOCTYPE svg PUBLIC "-//W3C//DTD SVG 1.1//EN" "http://www.w3.org/Graphics/SVG/1.1/DTD/svg11.dtd">
<svg version="1.1" id="Layer_1" xmlns="http://www.w3.org/2000/svg" xmlns:xlink="http://www.w3.org/1999/xlink" x="0px" y="0px"
	 width="119px" height="119px" viewBox="0 0 119 119" enable-background="new 0 0 119 119" xml:space="preserve">
<g>
	
		<linearGradient id="SVGID_1_" gradientUnits="userSpaceOnUse" x1="0.5005" y1="94.9316" x2="0.5005" y2="-12.9316" gradientTransform="matrix(1 0 0 -1 59 100.5)">
		<stop  offset="0" style="stop-color:#D62716"/>
		<stop  offset="0.2834" style="stop-color:#D12516"/>
		<stop  offset="0.6398" style="stop-color:#C12116"/>
		<stop  offset="1" style="stop-color:#AA1A16"/>
	</linearGradient>
	<circle fill="url(#SVGID_1_)" cx="59.5" cy="59.5" r="53.931"/>
	<g id="Layer_1_10_">
		<g opacity="0.2">
			<circle cx="61.166" cy="94.593" r="8.315"/>
			<path d="M64.846,51.12c-0.053,0.031-0.102,0.067-0.154,0.099l-0.875,0.502l-10.897,6.253l-0.005,0.016
				c-0.217,0.107-17.231,8.577-8.529,23.877l0.038,0.07l4.67,8.139c0,0-2.435-9.146,11.478-17.395l0.459-0.266l-0.006-0.008
				l11.965-6.863l-0.004-0.008c4.225-2.422,5.387-7.365,3.111-11.331C73.818,50.243,68.811,48.845,64.846,51.12z"/>
			<path d="M79.746,23.626c-2.275-3.966-7.316-5.347-11.283-3.072c-0.053,0.032-0.09,0.062-0.145,0.096L55.12,28.225l-14.501,8.32
				c0,0-17.233,8.592-8.531,23.893l0.037,0.068l4.672,8.141c0,0-2.356-9.195,11.558-17.442l0.536-0.307l-0.005-0.007l27.796-15.952
				l-0.004-0.009C80.539,32.691,82.016,27.582,79.746,23.626z"/>
		</g>
		<g>
			<g>
				<g>
					<circle fill="#FFFFFF" cx="59.915" cy="92.593" r="8.315"/>
					<path fill="#FFFFFF" d="M63.596,49.12c-0.053,0.031-0.102,0.067-0.154,0.099l-0.875,0.502l-10.897,6.253l-0.005,0.016
						c-0.217,0.107-17.231,8.577-8.529,23.877l0.038,0.07l4.67,8.139c0,0-2.435-9.146,11.478-17.395l0.459-0.266l-0.006-0.008
						l11.964-6.863l-0.004-0.008c4.225-2.422,5.387-7.365,3.111-11.331C72.568,48.243,67.561,46.845,63.596,49.12z"/>
					<path fill="#FFFFFF" d="M78.496,21.626c-2.275-3.966-7.316-5.347-11.283-3.072c-0.053,0.032-0.09,0.062-0.145,0.096
						L53.87,26.225l-14.501,8.32c0,0-17.233,8.592-8.531,23.892l0.037,0.069l4.672,8.141c0,0-2.356-9.195,11.558-17.442l0.536-0.307
						l-0.005-0.007l27.796-15.952l-0.004-0.009C79.289,30.691,80.766,25.582,78.496,21.626z"/>
				</g>
			</g>
		</g>
	</g>
</g>
</svg>
