<?xml version="1.0" encoding="utf-8"?>
<!-- Generator: Adobe Illustrator 16.0.0, SVG Export Plug-In . SVG Version: 6.00 Build 0)  -->
<!DOCTYPE svg PUBLIC "-//W3C//DTD SVG 1.1//EN" "http://www.w3.org/Graphics/SVG/1.1/DTD/svg11.dtd">
<svg version="1.1" id="Layer_1" xmlns="http://www.w3.org/2000/svg" xmlns:xlink="http://www.w3.org/1999/xlink" x="0px" y="0px"
	 width="265px" height="110.588px" viewBox="0 0 265 110.588" enable-background="new 0 0 265 110.588" xml:space="preserve">
<g>
	<linearGradient id="SVGID_1_" gradientUnits="userSpaceOnUse" x1="55.2251" y1="1.4116" x2="55.2251" y2="109.2744">
		<stop  offset="0" style="stop-color:#D62716"/>
		<stop  offset="0.2834" style="stop-color:#D12516"/>
		<stop  offset="0.6398" style="stop-color:#C12116"/>
		<stop  offset="1" style="stop-color:#AA1A16"/>
	</linearGradient>
	<circle fill="url(#SVGID_1_)" cx="55.225" cy="55.343" r="53.931"/>
	<g id="Layer_1_10_">
		<g opacity="0.2">
			<circle cx="56.89" cy="90.436" r="8.316"/>
			<path d="M60.571,46.963c-0.053,0.031-0.102,0.067-0.154,0.099l-0.876,0.502l-10.897,6.253l-0.005,0.016
				c-0.217,0.107-17.231,8.577-8.529,23.877l0.038,0.07l4.67,8.139c0,0-2.435-9.147,11.478-17.395l0.459-0.264l-0.006-0.009
				l11.964-6.863l-0.003-0.007c4.224-2.422,5.386-7.366,3.111-11.331C69.544,46.086,64.535,44.688,60.571,46.963z"/>
			<path d="M75.471,19.47c-2.276-3.966-7.317-5.347-11.283-3.072c-0.053,0.032-0.091,0.062-0.145,0.096l-13.198,7.574l-14.501,8.32
				c0,0-17.233,8.592-8.531,23.892l0.037,0.069l4.672,8.14c0,0-2.356-9.194,11.558-17.441l0.536-0.307l-0.005-0.007l27.796-15.952
				l-0.004-0.009C76.263,28.534,77.741,23.425,75.471,19.47z"/>
		</g>
		<g>
			<g>
				<g>
					<circle fill="#FFFFFF" cx="55.64" cy="88.436" r="8.316"/>
					<path fill="#FFFFFF" d="M59.321,44.963c-0.053,0.031-0.102,0.067-0.154,0.099l-0.876,0.502l-10.897,6.253l-0.005,0.016
						c-0.217,0.107-17.231,8.577-8.529,23.877l0.038,0.07l4.67,8.139c0,0-2.435-9.147,11.478-17.395l0.459-0.264l-0.006-0.009
						l11.964-6.863l-0.003-0.007c4.224-2.422,5.386-7.366,3.111-11.331C68.294,44.086,63.285,42.688,59.321,44.963z"/>
					<path fill="#FFFFFF" d="M74.221,17.47c-2.276-3.966-7.317-5.347-11.283-3.072c-0.053,0.032-0.091,0.062-0.145,0.096
						l-13.198,7.574l-14.501,8.32c0,0-17.233,8.592-8.531,23.892l0.037,0.069l4.672,8.14c0,0-2.356-9.194,11.558-17.441l0.536-0.307
						l-0.005-0.007l27.796-15.952l-0.004-0.009C75.013,26.534,76.491,21.425,74.221,17.47z"/>
				</g>
			</g>
		</g>
	</g>
</g>
<g>
	
		<image overflow="visible" opacity="0.65" width="146" height="75" xlink:href="316CAA906E7CE9E3.png"  transform="matrix(1 0 0 1 119.0552 19.1729)">
	</image>
	<g>
		<g>
			<path fill="#FFFFFF" d="M160.038,34.56v2.72h-23.84v19.04h20.641v2.721h-20.641v20.799h-3.296V34.56H160.038z"/>
			<path fill="#FFFFFF" d="M174.567,37.024c0,0.384-0.08,0.741-0.24,1.072c-0.16,0.331-0.367,0.624-0.624,0.88
				c-0.256,0.256-0.555,0.459-0.896,0.608c-0.342,0.149-0.705,0.224-1.088,0.224c-0.385,0-0.748-0.074-1.088-0.224
				c-0.342-0.149-0.641-0.352-0.896-0.608c-0.256-0.256-0.459-0.549-0.607-0.88c-0.15-0.331-0.225-0.688-0.225-1.072
				c0-0.384,0.074-0.752,0.225-1.104c0.148-0.352,0.352-0.656,0.607-0.912s0.555-0.458,0.896-0.608
				c0.34-0.149,0.703-0.224,1.088-0.224c0.383,0,0.746,0.075,1.088,0.224c0.341,0.149,0.64,0.352,0.896,0.608
				c0.257,0.256,0.464,0.56,0.624,0.912S174.567,36.64,174.567,37.024z M173.255,48v31.839h-3.039V48H173.255z"/>
			<path fill="#FFFFFF" d="M207.559,49.28c0,0.448-0.149,0.854-0.448,1.216L187.175,77.44h19.584v2.399h-23.264v-1.215
				c0-0.363,0.16-0.758,0.479-1.185l20-27.04h-19.424V48h23.008V49.28z"/>
			<path fill="#FFFFFF" d="M220.966,33.28v46.56h-3.071V33.28H220.966z"/>
			<path fill="#FFFFFF" d="M234.31,79.839V48h1.633c0.362,0,0.618,0.075,0.768,0.224c0.148,0.15,0.245,0.406,0.288,0.768
				l0.224,6.688c0.49-1.301,1.051-2.458,1.68-3.472c0.63-1.013,1.355-1.872,2.177-2.576s1.738-1.243,2.752-1.616
				c1.013-0.373,2.139-0.56,3.376-0.56c0.661,0,1.312,0.059,1.952,0.176c0.64,0.118,1.204,0.326,1.696,0.624l-0.256,2.112
				c-0.107,0.342-0.311,0.512-0.608,0.512c-0.257,0-0.646-0.075-1.169-0.224c-0.522-0.149-1.211-0.224-2.063-0.224
				c-1.237,0-2.336,0.192-3.296,0.576s-1.813,0.944-2.561,1.68c-0.746,0.736-1.402,1.653-1.967,2.752
				c-0.566,1.099-1.084,2.362-1.553,3.792v20.607H234.31z"/>
		</g>
	</g>
</g>
</svg>
