<?xml version="1.0" encoding="utf-8"?>
<!-- Generator: Adobe Illustrator 16.0.0, SVG Export Plug-In . SVG Version: 6.00 Build 0)  -->
<svg version="1.2" baseProfile="tiny" id="Layer_1" xmlns="http://www.w3.org/2000/svg" xmlns:xlink="http://www.w3.org/1999/xlink"
	 x="0px" y="0px" width="20px" height="20px" viewBox="0 0 20 20" xml:space="preserve">
<g>
	<path fill="#D62716" d="M6.548,16.384v-3.78c0-0.266,0.017-0.52,0.05-0.76s0.097-0.473,0.19-0.7c-0.28,0.333-0.653,0.64-1.12,0.921
		l-3.3,1.899l-1.02-1.78l3.28-1.9c0.479-0.293,0.946-0.466,1.4-0.52c-0.24-0.026-0.478-0.09-0.71-0.19
		c-0.234-0.1-0.464-0.223-0.69-0.37l-3.3-1.92l1.02-1.78l3.32,1.92c0.227,0.147,0.437,0.297,0.63,0.45
		c0.193,0.154,0.363,0.324,0.51,0.51c-0.106-0.227-0.177-0.46-0.21-0.7c-0.033-0.24-0.05-0.493-0.05-0.76v-3.8h2.08v3.78
		c0,0.533-0.08,1.02-0.24,1.46c0.146-0.187,0.313-0.353,0.5-0.5c0.187-0.146,0.394-0.293,0.62-0.44l3.3-1.9l1.021,1.78l-3.28,1.9
		c-0.227,0.147-0.453,0.267-0.68,0.36c-0.228,0.093-0.454,0.16-0.681,0.2c0.427,0.054,0.881,0.227,1.36,0.52l3.3,1.919l-1.02,1.781
		l-3.32-1.92c-0.227-0.134-0.437-0.277-0.63-0.431s-0.363-0.323-0.51-0.511c0.173,0.428,0.26,0.908,0.26,1.441v3.819H6.548z"/>
</g>
</svg>
